<svg width="42" height="40" viewBox="0 0 42 40" fill="none" xmlns="http://www.w3.org/2000/svg">
<path d="M20.6906 18.6296V15.6432H23.595V6.68946H26.4995V15.6432H29.404V18.6296H26.4995V21.6159H23.595V18.6296H20.6906ZM32.3034 6.68946V9.67579H38.1123V15.6432H35.2078V21.6159H32.3034V24.6022H11.9822V9.67579H17.7861V6.68946H11.9822V3.70313H9.07774V0.716797H0.371094V3.70313H6.17496V6.68946H9.07605V30.5679H11.9805V27.5886H35.2078V24.6022H38.1123V21.6159H41.0151V6.68946H32.3034ZM32.3034 12.6621H29.404V15.6432H32.3034V12.6621ZM17.7861 12.6621V15.6432H20.6906V12.6621H17.7861ZM6.17496 36.5406H11.9839V39.5269H17.7861V36.5406H32.3034V39.5269H38.1123V36.5406H41.0168V30.5679H38.1123V33.5543H9.07774L9.07605 30.5679H6.17496V36.5406Z" fill="#3669DB"/>
</svg>
