<svg width="30" height="30" viewBox="0 0 30 30" fill="none" xmlns="http://www.w3.org/2000/svg">
<g clip-path="url(#clip0_109_789)">
<path d="M17.1425 21.4287H15V23.5713H17.1425V21.4287ZM19.285 19.2875H17.1425V21.4287H19.2838V19.2875H19.285ZM19.2875 27.8575V25.7125H17.1425V27.8575H6.43V30H23.5713V27.8575H19.2875ZM19.285 8.57125H17.1425V10.7125H19.2838V8.57125H19.285ZM17.1425 6.42875H15V8.57125H17.1425V6.42875ZM21.4287 4.2875H19.2875V6.42875H21.4287V4.2875ZM27.8575 8.57125V10.7125H23.5737V8.57125H27.8575V4.2875H25.715V6.42875H21.4313V23.5687H19.29V25.71H23.5737V27.8525H25.715V25.71H27.8575V21.4263H30V8.57375H27.8575V8.57125ZM25.7125 23.5713H23.57V21.4287H25.7125V23.5713ZM27.8575 19.2875H23.5737V17.145H27.8575V19.2875ZM27.8575 15H23.5737V12.8587H27.8575V15ZM4.2875 21.4287H2.1425V25.7125H4.2875V21.4287ZM2.1425 17.1413V8.57125H0V21.4287H2.1425V17.1413ZM6.42875 25.7125H4.2875V27.855H6.42875V25.7125ZM10.7125 21.4287H8.57V23.5713H10.7125V21.4287ZM6.42875 21.4287H8.57L8.57125 17.1425H15V15H8.57125V12.8575H15V10.7125H8.57125V8.57125H6.42875V10.7125H4.2875V12.8575H6.42875V15H4.2875V17.1413H6.42875V21.4287ZM12.8575 25.7125H15V23.5713H10.7125V25.7125H12.8575ZM4.2875 6.42875V4.2875H2.1425V8.57125H4.2875V6.42875ZM10.7125 6.42875H8.57L8.57125 8.57125H10.7125V6.42875ZM6.42875 2.1425H4.2875V4.28375H6.42875V2.1425ZM10.7125 2.1425H17.1425V4.2875H19.2875V2.1425H21.43L21.4287 4.2875H25.7137V2.1425H23.5713V0H6.43L6.42875 2.1425H10.7125ZM15 6.42875V4.2875H10.7125V6.42875H15Z" fill="#3669DB"/>
</g>
<defs>
<clipPath id="clip0_109_789">
<rect width="30" height="30" fill="white"/>
</clipPath>
</defs>
</svg>
