<svg width="9" height="9" viewBox="0 0 9 9" fill="none" xmlns="http://www.w3.org/2000/svg">
<g clip-path="url(#clip0_109_799)">
<mask id="path-1-inside-1_109_799" fill="white">
<path d="M1.5 1.5H3V3H1.5V1.5ZM3 0H4.5V1.5H3V0ZM7.5 3H9V4.5H7.5V3ZM0 3H1.5V4.5H0V3ZM4.5 0H6V1.5H4.5V0ZM6 1.5H7.5V3H6V1.5ZM6 6H7.5V7.5H6V6ZM4.5 7.5H6V9H4.5V7.5ZM0 4.5H1.5V6H0V4.5ZM7.5 4.5H9V6H7.5V4.5ZM3 7.5H4.5V9H3V7.5ZM1.5 6H3V7.5H1.5V6Z"/>
</mask>
<path d="M1.5 1.5H3V3H1.5V1.5ZM3 0H4.5V1.5H3V0ZM7.5 3H9V4.5H7.5V3ZM0 3H1.5V4.5H0V3ZM4.5 0H6V1.5H4.5V0ZM6 1.5H7.5V3H6V1.5ZM6 6H7.5V7.5H6V6ZM4.5 7.5H6V9H4.5V7.5ZM0 4.5H1.5V6H0V4.5ZM7.5 4.5H9V6H7.5V4.5ZM3 7.5H4.5V9H3V7.5ZM1.5 6H3V7.5H1.5V6Z" fill="#3669DB"/>
<path d="M0 0V1.5H9V0H0ZM9 0H7.5V9H9V0ZM1.5 0H0V9H1.5V0ZM9 9V7.5H0V9H9ZM1.5 1.5V-7.5H-7.5V1.5H1.5ZM3 3V12H12V3H3ZM3 0V-9H-6V0H3ZM9 3H18V-6H9V3ZM0 3V-6H-9V3H0ZM6 0H15V-9H6V0ZM7.5 1.5H16.5V-7.5H7.5V1.5ZM6 3H-3V12H6V3ZM6 6V-3H-3V6H6ZM7.5 7.5V16.5H16.5V7.5H7.5ZM6 9V18H15V9H6ZM0 6H-9V15H0V6ZM9 6V15H18V6H9ZM3 9H-6V18H3V9ZM3 6H12V-3H3V6ZM1.5 7.5H-7.5V16.5H1.5V7.5ZM1.5 10.5H3V-7.5H1.5V10.5ZM-6 1.5V3H12V1.5H-6ZM3 -6H1.5V12H3V-6ZM10.5 3V1.5H-7.5V3H10.5ZM3 9H4.5V-9H3V9ZM4.5 -7.5H3V10.5H4.5V-7.5ZM12 1.5V0H-6V1.5H12ZM7.5 12H9V-6H7.5V12ZM0 3V4.5H18V3H0ZM16.5 4.5V3H-1.5V4.5H16.5ZM0 12H1.5V-6H0V12ZM-7.5 3V4.5H10.5V3H-7.5ZM9 4.5V3H-9V4.5H9ZM4.5 9H6V-9H4.5V9ZM-3 0V1.5H15V0H-3ZM6 -7.5H4.5V10.5H6V-7.5ZM6 10.5H7.5V-7.5H6V10.5ZM-1.5 1.5V3H16.5V1.5H-1.5ZM7.5 -6H6V12H7.5V-6ZM15 3V1.5H-3V3H15ZM6 15H7.5V-3H6V15ZM-1.5 6V7.5H16.5V6H-1.5ZM7.5 -1.5H6V16.5H7.5V-1.5ZM15 7.5V6H-3V7.5H15ZM4.5 16.5H6V-1.5H4.5V16.5ZM-3 7.5V9H15V7.5H-3ZM6 0H4.5V18H6V0ZM-7.5 4.5V6H10.5V4.5H-7.5ZM1.5 -3H0V15H1.5V-3ZM9 6V4.5H-9V6H9ZM0 4.5V6H18V4.5H0ZM9 -3H7.5V15H9V-3ZM16.5 6V4.5H-1.5V6H16.5ZM3 16.5H4.5V-1.5H3V16.5ZM4.5 0H3V18H4.5V0ZM12 9V7.5H-6V9H12ZM1.5 15H3V-3H1.5V15ZM-6 6V7.5H12V6H-6ZM3 -1.5H1.5V16.5H3V-1.5ZM10.5 7.5V6H-7.5V7.5H10.5Z" fill="#3669DB" mask="url(#path-1-inside-1_109_799)"/>
<circle cx="4.5" cy="4.5" r="3.5" fill="#3669DB"/>
</g>
<defs>
<clipPath id="clip0_109_799">
<rect width="9" height="9" fill="white"/>
</clipPath>
</defs>
</svg>
