<svg width="24" height="24" viewBox="0 0 24 24" fill="none" xmlns="http://www.w3.org/2000/svg">
<path d="M6 12.9231H7.846V11.0771H6V12.9231ZM7.846 14.7701H9.692V12.9231H7.846V14.7691V14.7701ZM9.692 16.6161H11.538V14.7691H9.692V16.6161ZM11.539 18.4621H13.385V16.6161H11.538L11.539 18.4621ZM13.384 20.3081H15.23V18.4621H13.384V20.3081ZM15.231 22.1541H17.077V20.3081H15.231V22.1541ZM17.077 24.0001H18.923V22.1541H17.077V24.0001ZM7.846 11.0771H9.692V9.23009H7.846V11.0771ZM9.692 9.23009H11.538V7.38609H9.692V9.23009ZM11.539 7.38509H13.385V5.53809H11.539V7.38509Z" fill="#3669DB"/>
<path d="M13.384 5.539H15.23V3.692H13.384V5.539ZM15.231 3.692H17.077V1.846H15.231V3.692ZM17.077 1.846H18.923V0H17.077V1.846Z" fill="#3669DB"/>
</svg>
