<svg width="25" height="26" viewBox="0 0 25 26" fill="none" xmlns="http://www.w3.org/2000/svg">
<g clip-path="url(#clip0_109_781)">
<path d="M4.36841 8.24599L4.34005 10.0918L6.18583 10.1201L6.21419 8.27435L4.36841 8.24599ZM6.24256 6.42756L6.21419 8.27435L8.05997 8.3027L8.08833 6.45692L6.24254 6.42857L6.24256 6.42756ZM8.11768 4.61115L8.08934 6.45594L9.93412 6.48428L9.96248 4.63849L8.1167 4.61014L8.11768 4.61115ZM19.1367 8.47286L19.1083 10.3186L20.9541 10.347L20.9824 8.50122L19.1367 8.47286ZM17.3183 6.59771L17.2899 8.44449L19.1367 8.47286L19.164 6.62707L17.3182 6.59871L17.3183 6.59771ZM15.5018 4.72459L15.4735 6.56937L17.3193 6.59773L17.3476 4.75195L15.5018 4.72459ZM11.8376 2.82108L9.99083 2.79271L9.96248 4.63849L11.8092 4.66786L11.4973 24.9725L13.3431 25.0008L13.655 4.69622L15.5008 4.72457L15.5292 2.87779L13.6834 2.84944L13.7118 1.00365L11.866 0.975299L11.8376 2.82108Z" fill="#3669DB"/>
</g>
<defs>
<clipPath id="clip0_109_781">
<rect width="24" height="25" fill="white" transform="translate(24.4141 25.4785) rotate(-179.12)"/>
</clipPath>
</defs>
</svg>
