<svg width="24" height="24" viewBox="0 0 24 24" fill="none" xmlns="http://www.w3.org/2000/svg">
<path d="M18.923 11.0771H17.077V12.9231H18.923V11.0771ZM17.077 9.23006H15.23V11.0771H17.077V9.23006ZM15.23 7.38506H13.385V9.23006H15.231V7.38506H15.23ZM13.384 5.53906H11.538V7.38506H13.384V5.53906Z" fill="#3669DB"/>
<path d="M11.539 3.692H9.692V5.54H11.539V3.692ZM9.692 1.846H7.846V3.692H9.692V1.846ZM7.846 0H6V1.846H7.846V0ZM17.077 12.923H15.23V14.769H17.077V12.923ZM15.23 14.77H13.385V16.615H15.231V14.77H15.23ZM13.384 16.616H11.538V18.462H13.384V16.616ZM11.538 18.462H9.692V20.308H11.539L11.538 18.462ZM9.692 20.308H7.846V22.154H9.692V20.308ZM7.846 22.154H6V24H7.846V22.154Z" fill="#3669DB"/>
</svg>
