<svg width="33" height="33" viewBox="0 0 33 33" fill="none" xmlns="http://www.w3.org/2000/svg">
<g clip-path="url(#clip0_109_791)">
<path d="M7.61613 20.3058V22.8468H5.07788V25.3837H2.53688V27.922H0V32.9998H5.07788V30.4588H7.6175V27.922H10.1544V25.3823H12.6912V22.8455H15.2323V20.3045H12.6912V17.7676H10.153V20.3045L7.61613 20.3058Z" fill="#3669DB"/>
<path d="M7.61749 10.1531V17.7692H10.153V7.61621H7.61749V10.1531Z" fill="#3669DB"/>
<path d="M12.6912 5.07788H10.1516V7.6175H12.6885V5.07788H12.6912ZM15.2281 2.53688H12.6899V5.07512H15.2281V2.53688ZM22.847 0H15.2309V2.53688H25.3839V0H22.847ZM27.9221 2.53688H25.3839L25.3852 5.07512H27.9221V2.53688ZM30.459 5.07788H27.9221V7.6175H30.459V5.07788ZM20.306 22.847H15.2309V25.3852H25.3839V22.847H20.306ZM27.9221 20.306H25.3852V22.8429H27.9221V20.306ZM30.459 17.7691H27.9221V20.306H30.459V17.7691ZM15.2309 5.07788V7.6175H25.3839V17.7705L27.9221 17.7691V7.6175L25.3825 7.61613V5.07788H15.2309Z" fill="#3669DB"/>
<path d="M15.2308 7.61621H12.6912V17.7692H15.2295V20.3061H25.3825V17.7692H15.2295L15.2308 7.61621ZM33 7.61621H30.459V17.7692H33V7.61621Z" fill="#3669DB"/>
</g>
<defs>
<clipPath id="clip0_109_791">
<rect width="33" height="33" fill="white"/>
</clipPath>
</defs>
</svg>
